REM DIRINDEX 1\2\5,1\2\6,1\2\7,1\2\8,1\3\9,1\3\10,1\3\11,1\4\12,1\4\13,1\4\14,1\4\15,1\4\16
REM DIRNAME folder01,folder02,folder03,folder04,folder05,folder06,folder07,folder08,folder09,folder10,folder11,folder12,folder13,folder14,folder15,folder16
TITLE ""
FILE "1200_2_sec03_0977_0992.mp3" MP3
  TRACK 01 AUDIO
    TITLE "0:"
    INDEX 01 00:00:00
  TRACK 02 AUDIO
    TITLE "10:cjc034_02013"
    INDEX 01 00:00:11
  TRACK 03 AUDIO
    TITLE "0:"
    INDEX 01 00:01:22
  TRACK 04 AUDIO
    TITLE "9:cjc034_02014"
    INDEX 01 00:01:24
  TRACK 05 AUDIO
    TITLE "0:"
    INDEX 01 00:02:38
  TRACK 06 AUDIO
    TITLE "10:cjc034_02015"
    INDEX 01 00:03:29
  TRACK 07 AUDIO
    TITLE "0:"
    INDEX 01 00:06:14
  TRACK 08 AUDIO
    TITLE "9:cjc034_02016"
    INDEX 01 00:06:18
  TRACK 09 AUDIO
    TITLE "0:"
    INDEX 01 00:07:29
  TRACK 10 AUDIO
    TITLE "10:cjc034_02017"
    INDEX 01 00:08:13
  TRACK 11 AUDIO
    TITLE "0:"
    INDEX 01 00:09:34
  TRACK 12 AUDIO
    TITLE "9:cjc034_02018"
    INDEX 01 00:09:36
  TRACK 13 AUDIO
    TITLE "0:"
    INDEX 01 00:10:49
  TRACK 14 AUDIO
    TITLE "10:cjc034_02019"
    INDEX 01 00:11:27
  TRACK 15 AUDIO
    TITLE "0:"
    INDEX 01 00:12:50
  TRACK 16 AUDIO
    TITLE "9:cjc034_02020"
    INDEX 01 00:12:54
  TRACK 17 AUDIO
    TITLE "0:"
    INDEX 01 00:13:63
  TRACK 18 AUDIO
    TITLE "10:cjc034_02021"
    INDEX 01 00:14:45
  TRACK 19 AUDIO
    TITLE "0:"
    INDEX 01 00:15:54
  TRACK 20 AUDIO
    TITLE "9:cjc034_02022"
    INDEX 01 00:15:56
  TRACK 21 AUDIO
    TITLE "0:"
    INDEX 01 00:17:02
  TRACK 22 AUDIO
    TITLE "10:cjc034_02023"
    INDEX 01 00:17:59
  TRACK 23 AUDIO
    TITLE "0:"
    INDEX 01 00:19:05
  TRACK 24 AUDIO
    TITLE "9:cjc034_02024"
    INDEX 01 00:19:11
  TRACK 25 AUDIO
    TITLE "0:"
    INDEX 01 00:20:32
  TRACK 26 AUDIO
    TITLE "10:cjc034_02025"
    INDEX 01 00:21:17
  TRACK 27 AUDIO
    TITLE "0:"
    INDEX 01 00:22:48
  TRACK 28 AUDIO
    TITLE "9:cjc034_02026"
    INDEX 01 00:22:54
  TRACK 29 AUDIO
    TITLE "0:"
    INDEX 01 00:24:08
  TRACK 30 AUDIO
    TITLE "10:cjc034_02027"
    INDEX 01 00:24:67
  TRACK 31 AUDIO
    TITLE "0:"
    INDEX 01 00:26:32
  TRACK 32 AUDIO
    TITLE "9:cjc034_02028"
    INDEX 01 00:26:36
  TRACK 33 AUDIO
    TITLE "0:"
    INDEX 01 00:27:49
  TRACK 34 AUDIO
    TITLE "10:cjc034_02029"
    INDEX 01 00:28:33
  TRACK 35 AUDIO
    TITLE "0:"
    INDEX 01 00:29:36
  TRACK 36 AUDIO
    TITLE "9:cjc034_02030"
    INDEX 01 00:29:42
  TRACK 37 AUDIO
    TITLE "0:"
    INDEX 01 00:30:57
  TRACK 38 AUDIO
    TITLE "11:cjc034_02031"
    INDEX 01 00:32:31
  TRACK 39 AUDIO
    TITLE "0:"
    INDEX 01 00:37:48
  TRACK 40 AUDIO
    TITLE "10:cjc034_02032"
    INDEX 01 00:38:49
  TRACK 41 AUDIO
    TITLE "0:"
    INDEX 01 00:40:73
  TRACK 42 AUDIO
    TITLE "9:cjc034_02033"
    INDEX 01 00:41:00
  TRACK 43 AUDIO
    TITLE "0:"
    INDEX 01 00:42:27
  TRACK 44 AUDIO
    TITLE "10:cjc034_02034"
    INDEX 01 00:43:11
  TRACK 45 AUDIO
    TITLE "0:"
    INDEX 01 00:46:17
  TRACK 46 AUDIO
    TITLE "9:cjc034_02035"
    INDEX 01 00:46:23
  TRACK 47 AUDIO
    TITLE "0:"
    INDEX 01 00:47:72
  TRACK 48 AUDIO
    TITLE "10:cjc034_02036"
    INDEX 01 00:48:53
  TRACK 49 AUDIO
    TITLE "0:"
    INDEX 01 00:50:68
  TRACK 50 AUDIO
    TITLE "9:cjc034_02037"
    INDEX 01 00:51:01
  TRACK 51 AUDIO
    TITLE "0:"
    INDEX 01 00:52:61
  TRACK 52 AUDIO
    TITLE "10:cjc034_02038"
    INDEX 01 00:53:41
  TRACK 53 AUDIO
    TITLE "0:"
    INDEX 01 00:54:74
  TRACK 54 AUDIO
    TITLE "9:cjc034_02039"
    INDEX 01 00:55:03
  TRACK 55 AUDIO
    TITLE "0:"
    INDEX 01 00:56:06
  TRACK 56 AUDIO
    TITLE "10:cjc034_02040"
    INDEX 01 00:56:69
  TRACK 57 AUDIO
    TITLE "0:"
    INDEX 01 00:58:03
  TRACK 58 AUDIO
    TITLE "9:cjc034_02041"
    INDEX 01 00:58:09
  TRACK 59 AUDIO
    TITLE "0:"
    INDEX 01 00:59:12
  TRACK 60 AUDIO
    TITLE "10:cjc034_02042"
    INDEX 01 00:59:73
  TRACK 61 AUDIO
    TITLE "0:"
    INDEX 01 01:01:15
  TRACK 62 AUDIO
    TITLE "9:cjc034_02043"
    INDEX 01 01:01:17
  TRACK 63 AUDIO
    TITLE "0:"
    INDEX 01 01:02:36
  TRACK 64 AUDIO
    TITLE "10:cjc034_02044"
    INDEX 01 01:03:22
  TRACK 65 AUDIO
    TITLE "0:"
    INDEX 01 01:04:47
  TRACK 66 AUDIO
    TITLE "9:cjc034_02045"
    INDEX 01 01:04:48
  TRACK 67 AUDIO
    TITLE "0:"
    INDEX 01 01:06:02
